<svg xmlns="http://www.w3.org/2000/svg" xmlns:xlink="http://www.w3.org/1999/xlink" width="500" zoomAndPan="magnify" viewBox="0 0 375 374.999991" height="500" preserveAspectRatio="xMidYMid meet" version="1.0"><path fill="#000000" d="M 191.140625 351.773438 C 200.980469 357.234375 210.601562 359.859375 219.785156 360.515625 C 238.152344 361.605469 254.984375 354.175781 270.074219 341.5 C 285.816406 328.390625 299.589844 309.816406 310.523438 289.929688 C 328.886719 256.710938 340.039062 219.5625 341.570312 195.085938 C 343.539062 166.019531 338.507812 141.984375 328.230469 123.84375 C 321.453125 111.605469 312.269531 101.992188 301.339844 95.214844 C 290.40625 88.441406 277.726562 84.507812 263.730469 83.632812 C 241.648438 82.324219 216.722656 88.441406 190.703125 102.867188 C 188.519531 103.957031 185.894531 103.738281 183.925781 102.429688 C 158.125 88.222656 133.199219 82.324219 111.335938 83.632812 C 97.34375 84.507812 84.660156 88.441406 73.730469 95.214844 C 62.796875 101.992188 53.613281 111.605469 46.835938 123.84375 C 36.777344 141.984375 31.75 166.019531 33.5 195.085938 C 35.027344 219.5625 46.179688 256.710938 64.546875 289.929688 C 75.695312 309.816406 89.253906 328.390625 104.996094 341.5 C 120.082031 354.175781 137.136719 361.605469 155.285156 360.515625 C 164.46875 359.859375 174.304688 357.015625 184.363281 351.554688 C 186.550781 350.242188 189.175781 350.460938 191.140625 351.773438 Z M 219.128906 373.625 C 208.851562 372.96875 198.355469 370.128906 187.644531 364.664062 C 176.710938 370.128906 166.214844 372.96875 156.160156 373.625 C 134.074219 374.9375 114.179688 366.195312 96.6875 351.554688 C 79.632812 337.347656 64.984375 317.464844 53.175781 296.046875 C 33.71875 261.300781 22.128906 221.964844 20.378906 195.960938 C 18.410156 164.273438 24.097656 137.832031 35.464844 117.507812 C 43.335938 103.300781 54.050781 91.9375 66.953125 84.070312 C 79.632812 76.203125 94.5 71.617188 110.679688 70.523438 C 134.074219 68.992188 160.53125 75.113281 187.644531 89.535156 C 214.535156 75.113281 240.992188 68.992188 264.605469 70.523438 C 280.785156 71.617188 295.433594 76.203125 308.335938 84.070312 C 321.015625 91.9375 331.730469 103.300781 339.820312 117.507812 C 350.972656 137.832031 356.65625 164.273438 354.6875 195.960938 C 353.15625 221.964844 341.351562 261.300781 322.109375 296.046875 C 310.304688 317.464844 295.652344 337.347656 278.601562 351.554688 C 260.890625 366.195312 240.992188 374.9375 219.128906 373.625 Z M 219.128906 373.625 " fill-opacity="1" fill-rule="nonzero"/><path fill="#000000" d="M 166.433594 3.871094 C 164.46875 0.8125 160.3125 -0.0625 157.25 1.683594 C 154.191406 3.652344 153.316406 7.804688 155.285156 10.863281 C 156.597656 13.050781 163.15625 23.539062 169.277344 39.273438 C 175.617188 55.007812 181.300781 75.332031 181.085938 96.964844 C 181.085938 100.679688 183.925781 103.519531 187.425781 103.519531 C 191.140625 103.738281 193.984375 100.679688 194.203125 97.183594 C 194.421875 73.582031 188.300781 51.292969 181.519531 34.464844 C 174.960938 17.855469 167.746094 6.273438 166.433594 3.871094 Z M 166.433594 3.871094 " fill-opacity="1" fill-rule="nonzero"/><path fill="#000000" d="M 180.867188 97.621094 C 180.210938 93.03125 172.996094 22.882812 234.433594 19.386719 C 238.152344 19.167969 241.210938 22.007812 241.429688 25.503906 C 241.429688 25.722656 241.429688 25.722656 241.429688 25.941406 C 246.023438 80.136719 190.484375 102.867188 189.828125 103.082031 C 186.550781 104.613281 182.613281 102.867188 181.300781 99.585938 C 181.085938 98.933594 180.867188 98.277344 180.867188 97.621094 Z M 228.53125 33.152344 C 197.484375 38.835938 193.328125 70.523438 193.328125 86.695312 C 206.007812 79.265625 228.09375 62.21875 228.53125 33.152344 Z M 228.53125 33.152344 " fill-opacity="1" fill-rule="nonzero"/><path fill="#000000" d="M 95.375 116.195312 C 98.65625 114.449219 99.746094 110.515625 98 107.234375 C 96.03125 104.175781 92.09375 103.082031 89.035156 104.832031 C 74.605469 112.917969 63.234375 125.8125 55.800781 142.855469 C 49.023438 158.589844 45.960938 177.820312 47.492188 200.550781 C 47.710938 204.046875 50.773438 206.886719 54.269531 206.667969 C 57.988281 206.449219 60.609375 203.171875 60.390625 199.675781 C 59.078125 179.132812 61.921875 161.867188 67.824219 147.882812 C 73.949219 133.679688 83.566406 122.96875 95.375 116.195312 Z M 95.375 116.195312 " fill-opacity="1" fill-rule="nonzero"/><path fill="#fd9596" d="M 199.230469 98.277344 C 195.734375 100.460938 192.890625 101.773438 191.359375 102.429688 C 191.140625 102.648438 190.921875 102.648438 190.703125 102.867188 C 189.609375 103.300781 188.519531 103.738281 187.425781 103.519531 C 185.894531 103.738281 184.363281 103.082031 183.050781 101.992188 C 157.6875 88.222656 132.980469 82.324219 111.335938 83.632812 C 97.34375 84.507812 84.660156 88.441406 73.730469 95.214844 C 62.796875 101.992188 53.613281 111.605469 46.835938 123.84375 C 36.777344 141.984375 31.75 166.019531 33.5 195.085938 C 35.027344 219.5625 46.179688 256.710938 64.546875 289.929688 C 75.695312 309.816406 89.253906 328.390625 104.996094 341.5 C 120.082031 354.175781 137.136719 361.605469 155.285156 360.515625 C 164.46875 359.859375 174.304688 357.015625 184.363281 351.554688 C 186.550781 350.242188 189.175781 350.460938 191.140625 351.773438 C 200.980469 357.234375 210.601562 359.859375 219.785156 360.515625 C 238.152344 361.605469 254.984375 354.175781 270.074219 341.5 C 285.816406 328.390625 299.589844 309.816406 310.523438 289.929688 C 328.886719 256.710938 340.039062 219.5625 341.570312 195.085938 C 343.539062 166.019531 338.507812 141.984375 328.230469 123.84375 C 321.453125 111.605469 312.269531 101.992188 301.339844 95.214844 C 290.40625 88.441406 277.726562 84.507812 263.730469 83.632812 C 244.054688 82.324219 222.1875 87.132812 199.230469 98.277344 Z M 98 107.234375 C 99.746094 110.515625 98.65625 114.449219 95.375 116.195312 C 83.566406 122.96875 73.949219 133.679688 67.824219 147.882812 C 61.921875 161.867188 59.078125 179.132812 60.390625 199.675781 C 60.609375 203.171875 57.988281 206.449219 54.269531 206.667969 C 50.773438 206.886719 47.710938 204.046875 47.492188 200.550781 C 45.960938 177.820312 49.023438 158.589844 55.800781 142.855469 C 63.234375 125.8125 74.605469 112.917969 89.035156 104.832031 C 92.09375 103.082031 96.03125 104.175781 98 107.234375 Z M 98 107.234375 " fill-opacity="1" fill-rule="evenodd"/><path fill="#a7ffa7" d="M 228.53125 33.152344 C 200.105469 38.398438 194.203125 65.496094 193.546875 82.324219 C 193.546875 83.851562 193.765625 85.164062 193.765625 86.476562 C 206.445312 78.828125 228.09375 61.78125 228.53125 33.152344 Z M 228.53125 33.152344 " fill-opacity="1" fill-rule="evenodd"/></svg>